<svg width="160" height="160" viewBox="0 0 160 160" fill="none" xmlns="http://www.w3.org/2000/svg">
<g filter="url(#filter0_d_1188_8196)">
<circle cx="80" cy="80" r="60" fill="white"/>
</g>
<g clip-path="url(#clip0_1188_8196)">
<path d="M79.3007 85.1898C78.0929 85.2048 76.8952 84.969 75.7832 84.4974C74.6713 84.0258 73.6693 83.3285 72.8407 82.4498C71.8638 81.3906 71.1687 80.103 70.8193 78.7051C70.4698 77.3073 70.4772 75.8441 70.8407 74.4498C71.0607 73.1998 76.7107 63.0398 77.8407 61.0198C78.0019 60.7348 78.236 60.4978 78.5188 60.3329C78.8017 60.168 79.1232 60.0811 79.4507 60.0811C79.7781 60.0811 80.0996 60.168 80.3825 60.3329C80.6654 60.4978 80.8994 60.7348 81.0607 61.0198C82.1907 63.0198 87.8407 73.1998 88.0607 74.4598C88.3827 75.7508 88.4012 77.0988 88.1147 78.3982C87.8281 79.6975 87.2443 80.9127 86.4091 81.9485C85.5739 82.9842 84.51 83.8123 83.301 84.3678C82.0919 84.9232 80.7706 85.1909 79.4407 85.1498L79.3007 85.1898ZM79.4107 83.9198H79.5007C80.5375 83.9363 81.5664 83.7368 82.522 83.334C83.4775 82.9311 84.3386 82.3337 85.0507 81.5798C85.8854 80.6859 86.4822 79.5966 86.7863 78.4119C87.0903 77.2273 87.0918 75.9852 86.7907 74.7998C86.6207 73.9298 83.1207 67.4098 79.9207 61.6698C79.8631 61.5913 79.7878 61.5274 79.7009 61.4834C79.6141 61.4393 79.518 61.4164 79.4207 61.4164C79.3233 61.4164 79.2273 61.4393 79.1404 61.4834C79.0535 61.5274 78.9782 61.5913 78.9207 61.6698C75.7207 67.4098 72.2307 73.9298 72.0707 74.6698C71.7574 75.861 71.7489 77.1119 72.046 78.3072C72.343 79.5025 72.9362 80.6039 73.7707 81.5098C74.4823 82.2716 75.3455 82.8761 76.3048 83.2843C77.2641 83.6924 78.2982 83.8953 79.3407 83.8798L79.4107 83.9198Z" fill="black"/>
<path d="M82.5909 75.1792C82.7409 75.4892 82.8509 75.7392 82.9009 75.8492C82.9086 75.8903 82.9063 75.9327 82.8941 75.9728C82.8819 76.0128 82.8602 76.0493 82.8309 76.0792C82.754 76.1298 82.6628 76.1543 82.5709 76.1492C82.4874 76.1492 82.4064 76.121 82.3409 76.0692C82.3116 76.0393 82.2899 76.0028 82.2777 75.9628C82.2656 75.9227 82.2632 75.8803 82.2709 75.8392L82.5909 75.1792ZM82.5909 72.6592C82.5484 72.6588 82.5066 72.6697 82.4697 72.6908C82.4328 72.7119 82.4022 72.7424 82.3809 72.7792C82.3809 72.7792 81.0909 75.2692 81.0509 75.5092C80.9864 75.757 80.9856 76.0172 81.0486 76.2654C81.1115 76.5137 81.2361 76.742 81.4109 76.9292C81.5596 77.087 81.7396 77.2121 81.9393 77.2964C82.139 77.3808 82.3541 77.4226 82.5709 77.4192C82.7874 77.4208 83.002 77.3782 83.2015 77.2939C83.401 77.2097 83.5811 77.0855 83.7309 76.9292C83.9033 76.7405 84.0264 76.5122 84.0893 76.2644C84.1521 76.0167 84.1526 75.7572 84.0909 75.5092C84.0409 75.2692 82.7509 72.7792 82.7509 72.7792C82.7305 72.7438 82.7015 72.7143 82.6665 72.6933C82.6315 72.6723 82.5917 72.6605 82.5509 72.6592H82.5909Z" fill="black"/>
<path d="M88.14 93.4596H75.49C74.8897 93.4596 74.3138 93.6974 73.8884 94.1209C73.463 94.5445 73.2226 95.1193 73.22 95.7196V103C73.22 103.84 72.886 104.647 72.2915 105.241C71.697 105.836 70.8907 106.17 70.05 106.17H57.19C55.8851 106.17 54.6337 105.651 53.711 104.729C52.7884 103.806 52.27 102.554 52.27 101.25V56.7896C52.2726 55.4856 52.7918 54.2357 53.714 53.3136C54.6361 52.3915 55.8859 51.8723 57.19 51.8696H101.64C102.944 51.8723 104.194 52.3915 105.116 53.3136C106.038 54.2357 106.557 55.4856 106.56 56.7896V82.9996C106.56 83.1667 106.626 83.3269 106.745 83.4451C106.863 83.5632 107.023 83.6296 107.19 83.6296C107.358 83.6296 107.519 83.5636 107.639 83.4457C107.759 83.3278 107.827 83.1676 107.83 82.9996V56.7896C107.827 55.1487 107.174 53.5758 106.014 52.4155C104.854 51.2553 103.281 50.6023 101.64 50.5996H57.19C55.5491 50.6023 53.9762 51.2553 52.8159 52.4155C51.6557 53.5758 51.0026 55.1487 51 56.7896V101.23C51 102.871 51.6522 104.446 52.813 105.607C53.9739 106.767 55.5483 107.42 57.19 107.42H70.05C71.2241 107.42 72.3504 106.955 73.1825 106.126C74.0146 105.298 74.4847 104.174 74.49 103V95.7196C74.49 95.4544 74.5954 95.2 74.7829 95.0125C74.9704 94.825 75.2248 94.7196 75.49 94.7196H88.14C88.3071 94.7196 88.4673 94.6532 88.5855 94.5351C88.7036 94.4169 88.77 94.2567 88.77 94.0896C88.77 93.9225 88.7036 93.7623 88.5855 93.6441C88.4673 93.526 88.3071 93.4596 88.14 93.4596Z" fill="#165DBA"/>
<path d="M110.94 92.9191C110.74 91.0062 110.003 89.1887 108.815 87.676C107.627 86.1634 106.036 85.0171 104.225 84.3692C102.414 83.7212 100.457 83.5981 98.5789 84.0138C96.7009 84.4296 94.9786 85.3674 93.6103 86.7191C92.1788 88.1465 91.2032 89.9667 90.8072 91.9491C90.4112 93.9314 90.6126 95.9867 91.3858 97.8545C92.1591 99.7223 93.4694 101.319 95.1507 102.441C96.8321 103.563 98.8087 104.161 100.83 104.159C101.19 104.159 101.55 104.159 101.91 104.159C104.213 103.913 106.362 102.886 108 101.249C108.26 100.989 108.5 100.719 108.74 100.439C109.585 99.3928 110.214 98.1897 110.592 96.899C110.97 95.6084 111.088 94.2558 110.94 92.9191ZM101.72 102.919C99.924 103.125 98.1074 102.782 96.5103 101.934C94.9132 101.087 93.6106 99.7751 92.7744 98.1721C91.9382 96.569 91.6077 94.75 91.8266 92.9553C92.0454 91.1605 92.8033 89.4743 94.0003 88.1191L106.62 100.769C105.246 101.969 103.535 102.713 101.72 102.899V102.919ZM107.72 99.6491L107.5 99.8891L94.9403 87.2191C96.3127 86.0251 98.0207 85.2846 99.8303 85.0991C100.162 85.0575 100.496 85.0375 100.83 85.0391C102.518 85.0491 104.168 85.5332 105.593 86.4362C107.019 87.3392 108.161 88.6246 108.891 90.1458C109.621 91.6671 109.909 93.3629 109.721 95.0397C109.533 96.7165 108.878 98.3068 107.83 99.6291L107.72 99.6491Z" fill="#165DBA"/>
</g>
<defs>
<filter id="filter0_d_1188_8196" x="0" y="0" width="160" height="160" filterUnits="userSpaceOnUse" color-interpolation-filters="sRGB">
<feFlood flood-opacity="0" result="BackgroundImageFix"/>
<feColorMatrix in="SourceAlpha" type="matrix" values="0 0 0 0 0 0 0 0 0 0 0 0 0 0 0 0 0 0 127 0" result="hardAlpha"/>
<feOffset/>
<feGaussianBlur stdDeviation="10"/>
<feComposite in2="hardAlpha" operator="out"/>
<feColorMatrix type="matrix" values="0 0 0 0 0 0 0 0 0 0 0 0 0 0 0 0 0 0 0.16 0"/>
<feBlend mode="normal" in2="BackgroundImageFix" result="effect1_dropShadow_1188_8196"/>
<feBlend mode="normal" in="SourceGraphic" in2="effect1_dropShadow_1188_8196" result="shape"/>
</filter>
<clipPath id="clip0_1188_8196">
<rect width="60" height="60" fill="white" transform="translate(51 49)"/>
</clipPath>
</defs>
</svg>
