<svg width="160" height="160" viewBox="0 0 160 160" fill="none" xmlns="http://www.w3.org/2000/svg">
    <g filter="url(#a)">
        <circle cx="80" cy="80" r="60" fill="#fff"/>
    </g>
    <path d="M80 50c-16.6 0-30 13.4-30 30s13.4 30 30 30 30-13.4 30-30-13.4-30-30-30zm0 58.8c-15.9 0-28.8-12.9-28.8-28.8 0-7.4 2.9-14.5 8-19.9l40.7 40.7c-5.4 5.1-12.5 8-19.9 8zm20.7-8.8L60 59.3c11.2-11.3 29.3-10.5 40.2.1 11.1 10.8 11.8 29.4.5 40.6z" fill="#165DBA"/>
    <defs>
        <filter id="a" x="0" y="0" width="160" height="160" filterUnits="userSpaceOnUse" color-interpolation-filters="sRGB">
            <feFlood flood-opacity="0" result="BackgroundImageFix"/>
            <feColorMatrix in="SourceAlpha" values="0 0 0 0 0 0 0 0 0 0 0 0 0 0 0 0 0 0 127 0" result="hardAlpha"/>
            <feOffset/>
            <feGaussianBlur stdDeviation="10"/>
            <feComposite in2="hardAlpha" operator="out"/>
            <feColorMatrix values="0 0 0 0 0 0 0 0 0 0 0 0 0 0 0 0 0 0 0.16 0"/>
            <feBlend in2="BackgroundImageFix" result="effect1_dropShadow_1188_8229"/>
            <feBlend in="SourceGraphic" in2="effect1_dropShadow_1188_8229" result="shape"/>
        </filter>
    </defs>
</svg>
