<svg width="160" height="160" viewBox="0 0 160 160" fill="none" xmlns="http://www.w3.org/2000/svg">
<g filter="url(#filter0_d_1188_8197)">
<circle cx="80" cy="80" r="60" fill="white"/>
</g>
<g clip-path="url(#clip0_1188_8197)">
<path d="M89.7 105.8H61.35C60.1176 105.797 58.9363 105.307 58.0649 104.435C57.1934 103.564 56.7026 102.382 56.7 101.15V52.85C56.7026 51.6176 57.1934 50.4363 58.0649 49.5649C58.9363 48.6934 60.1176 48.2026 61.35 48.2H85.86C86.3029 48.2078 86.7431 48.2717 87.17 48.39C87.17 48.39 87.17 48.46 87.17 48.5V59.9C87.1726 60.8142 87.537 61.6902 88.1834 62.3366C88.8298 62.983 89.7058 63.3474 90.62 63.35H102H102.1C102.227 63.7957 102.295 64.2565 102.3 64.72V83.6C102.3 83.7591 102.363 83.9117 102.476 84.0243C102.588 84.1368 102.741 84.2 102.9 84.2C103.059 84.2 103.212 84.1368 103.324 84.0243C103.437 83.9117 103.5 83.7591 103.5 83.6V64.7C103.502 63.8589 103.338 63.0257 103.017 62.2483C102.696 61.4709 102.225 60.7645 101.63 60.17L90.41 48.89C89.2032 47.6827 87.567 47.0031 85.86 47H61.35C59.7985 47 58.3105 47.6163 57.2134 48.7134C56.1163 49.8105 55.5 51.2985 55.5 52.85V101.15C55.5 102.702 56.1163 104.189 57.2134 105.287C58.3105 106.384 59.7985 107 61.35 107H89.7C89.8591 107 90.0117 106.937 90.1243 106.824C90.2368 106.712 90.3 106.559 90.3 106.4C90.3 106.241 90.2368 106.088 90.1243 105.976C90.0117 105.863 89.8591 105.8 89.7 105.8ZM100.78 61C101.105 61.3382 101.385 61.7182 101.61 62.13H90.61C90.0133 62.13 89.441 61.8929 89.019 61.471C88.5971 61.049 88.36 60.4767 88.36 59.88V48.88C88.8052 49.111 89.2131 49.4076 89.57 49.76L100.78 61Z" fill="#165DBA"/>
<path d="M98.5504 85.0997C96.3868 85.1096 94.2747 85.7602 92.4806 86.9694C90.6865 88.1786 89.2908 89.8922 88.4696 91.8939C87.6485 93.8956 87.4388 96.0957 87.8669 98.2164C88.2951 100.337 89.3419 102.284 90.8752 103.81C92.4086 105.336 94.3598 106.374 96.4825 106.793C98.6052 107.211 100.804 106.992 102.802 106.161C104.8 105.331 106.507 103.928 107.708 102.128C108.909 100.328 109.55 98.2133 109.55 96.0497C109.55 94.6075 109.266 93.1795 108.712 91.8478C108.159 90.516 107.348 89.3066 106.326 88.2892C105.303 87.2717 104.09 86.4662 102.756 85.9188C101.422 85.3715 99.9926 85.0931 98.5504 85.0997V85.0997ZM88.8004 96.0497C88.8006 93.712 89.6459 91.4532 91.1804 89.6897L104.91 103.43C103.498 104.651 101.764 105.44 99.9154 105.704C98.0669 105.968 96.1815 105.694 94.4839 104.917C92.7863 104.139 91.348 102.89 90.3403 101.318C89.3327 99.7455 88.7981 97.917 88.8004 96.0497ZM105.8 102.59L92.0004 88.8397C93.8405 87.0978 96.2875 86.1423 98.821 86.1766C101.355 86.2108 103.775 87.232 105.567 89.023C107.36 90.8141 108.383 93.2336 108.419 95.7672C108.455 98.3007 107.501 100.748 105.76 102.59H105.8Z" fill="#165DBA"/>
</g>
<defs>
<filter id="filter0_d_1188_8197" x="0" y="0" width="160" height="160" filterUnits="userSpaceOnUse" color-interpolation-filters="sRGB">
<feFlood flood-opacity="0" result="BackgroundImageFix"/>
<feColorMatrix in="SourceAlpha" type="matrix" values="0 0 0 0 0 0 0 0 0 0 0 0 0 0 0 0 0 0 127 0" result="hardAlpha"/>
<feOffset/>
<feGaussianBlur stdDeviation="10"/>
<feComposite in2="hardAlpha" operator="out"/>
<feColorMatrix type="matrix" values="0 0 0 0 0 0 0 0 0 0 0 0 0 0 0 0 0 0 0.16 0"/>
<feBlend mode="normal" in2="BackgroundImageFix" result="effect1_dropShadow_1188_8197"/>
<feBlend mode="normal" in="SourceGraphic" in2="effect1_dropShadow_1188_8197" result="shape"/>
</filter>
<clipPath id="clip0_1188_8197">
<rect width="60" height="60" fill="white" transform="translate(50 47)"/>
</clipPath>
</defs>
</svg>
