<svg width="160" height="160" viewBox="0 0 160 160" fill="none" xmlns="http://www.w3.org/2000/svg">
<g filter="url(#filter0_d_1524_5900)">
<circle cx="80" cy="80" r="60" fill="white"/>
</g>
<g clip-path="url(#clip0_1524_5900)">
<path d="M86.5095 104.37H66.5095C65.1835 104.37 63.9117 103.843 62.974 102.905C62.0363 101.967 61.5095 100.696 61.5095 99.3695V81.2995H86.5095C86.6793 81.2995 86.8421 81.2321 86.9621 81.1121C87.0821 80.9921 87.1495 80.8293 87.1495 80.6595C87.1495 80.4898 87.0821 80.327 86.9621 80.207C86.8421 80.087 86.6793 80.0195 86.5095 80.0195H58.3295C58.1598 80.0195 57.997 80.087 57.877 80.207C57.757 80.327 57.6895 80.4898 57.6895 80.6595C57.6882 80.7439 57.7038 80.8278 57.7355 80.906C57.7672 80.9843 57.8143 81.0554 57.874 81.1151C57.9337 81.1748 58.0048 81.2219 58.083 81.2536C58.1613 81.2853 58.2451 81.3009 58.3295 81.2995H60.2495V99.3695C60.2522 101.024 60.9105 102.609 62.0801 103.779C63.2498 104.949 64.8354 105.607 66.4895 105.61H86.4895C86.6593 105.61 86.8221 105.542 86.9421 105.422C87.0621 105.302 87.1295 105.139 87.1295 104.97C87.1295 104.8 87.0621 104.637 86.9421 104.517C86.8221 104.397 86.6593 104.33 86.4895 104.33L86.5095 104.37Z" fill="#165DBA"/>
<path d="M82.5107 88.8301H69.3607C69.191 88.8301 69.0282 88.8975 68.9082 89.0175C68.7881 89.1376 68.7207 89.3003 68.7207 89.4701C68.7207 89.6398 68.7881 89.8026 68.9082 89.9226C69.0282 90.0426 69.191 90.1101 69.3607 90.1101H82.5107C82.5947 90.1101 82.678 90.0935 82.7556 90.0614C82.8333 90.0292 82.9038 89.9821 82.9632 89.9226C83.0227 89.8632 83.0698 89.7926 83.102 89.715C83.1341 89.6373 83.1507 89.5541 83.1507 89.4701C83.1507 89.386 83.1341 89.3028 83.102 89.2252C83.0698 89.1475 83.0227 89.077 82.9632 89.0175C82.9038 88.9581 82.8333 88.911 82.7556 88.8788C82.678 88.8466 82.5947 88.8301 82.5107 88.8301V88.8301Z" fill="#165DBA"/>
<path d="M56.5599 66.3701C56.3902 66.3701 56.2274 66.4375 56.1074 66.5576C55.9874 66.6776 55.9199 66.8404 55.9199 67.0101C55.9199 67.1799 55.9874 67.3426 56.1074 67.4627C56.2274 67.5827 56.3902 67.6501 56.5599 67.6501H59.7699C59.9397 67.6501 60.1024 67.5827 60.2225 67.4627C60.3425 67.3426 60.4099 67.1799 60.4099 67.0101C60.4099 66.8404 60.3425 66.6776 60.2225 66.5576C60.1024 66.4375 59.9397 66.3701 59.7699 66.3701H56.5599Z" fill="#165DBA"/>
<path d="M82.5107 95.2305H69.3607C69.191 95.2305 69.0282 95.2979 68.9082 95.4179C68.7881 95.5379 68.7207 95.7007 68.7207 95.8705C68.7207 96.0402 68.7881 96.203 68.9082 96.323C69.0282 96.443 69.191 96.5105 69.3607 96.5105H82.5107C82.6804 96.5105 82.8432 96.443 82.9632 96.323C83.0833 96.203 83.1507 96.0402 83.1507 95.8705C83.1507 95.7007 83.0833 95.5379 82.9632 95.4179C82.8432 95.2979 82.6804 95.2305 82.5107 95.2305V95.2305Z" fill="#165DBA"/>
<path d="M58.33 90.2702H56.24C54.9139 90.2702 53.6421 89.7434 52.7045 88.8057C51.7668 87.868 51.24 86.5962 51.24 85.2702V65.7702C51.24 64.4441 51.7668 63.1723 52.7045 62.2346C53.6421 61.2969 54.9139 60.7702 56.24 60.7702H100.12C101.446 60.7702 102.718 61.2969 103.656 62.2346C104.593 63.1723 105.12 64.4441 105.12 65.7702V81.9402C105.12 82.1099 105.187 82.2727 105.307 82.3927C105.427 82.5127 105.59 82.5802 105.76 82.5802C105.93 82.5802 106.093 82.5127 106.213 82.3927C106.333 82.2727 106.4 82.1099 106.4 81.9402V65.7702C106.397 64.116 105.739 62.5304 104.569 61.3607C103.4 60.1911 101.814 59.5328 100.16 59.5302H96.16V53.1202C96.16 52.4444 96.0263 51.7753 95.7665 51.1515C95.5067 50.5277 95.126 49.9615 94.6463 49.4856C94.1666 49.0096 93.5974 48.6333 92.9716 48.3784C92.3458 48.1234 91.6757 47.9949 91 48.0002H66.65C65.2921 48.0002 63.9898 48.5396 63.0296 49.4998C62.0694 50.46 61.53 51.7622 61.53 53.1202V59.5302H56.24C54.5859 59.5328 53.0002 60.1911 51.8306 61.3607C50.6609 62.5304 50.0026 64.116 50 65.7702V85.3102C50.0026 86.9643 50.6609 88.5499 51.8306 89.7196C53.0002 90.8892 54.5859 91.5475 56.24 91.5502H58.33C58.4997 91.5502 58.6625 91.4827 58.7825 91.3627C58.9026 91.2427 58.97 91.0799 58.97 90.9102C58.97 90.7404 58.9026 90.5776 58.7825 90.4576C58.6625 90.3376 58.4997 90.2702 58.33 90.2702V90.2702ZM62.85 53.1202C62.8526 52.1131 63.2538 51.1481 63.9659 50.4361C64.678 49.724 65.643 49.3228 66.65 49.3202H91C92.007 49.3228 92.972 49.724 93.6841 50.4361C94.3962 51.1481 94.7974 52.1131 94.8 53.1202V59.4802H62.85V53.1202Z" fill="#165DBA"/>
<path d="M98.0009 106.99C95.5049 106.99 93.0649 106.25 90.9896 104.863C88.9142 103.476 87.2967 101.505 86.3415 99.1995C85.3863 96.8935 85.1364 94.356 85.6234 91.908C86.1103 89.4599 87.3122 87.2113 89.0772 85.4463C90.8421 83.6814 93.0908 82.4794 95.5388 81.9925C97.9869 81.5056 100.524 81.7555 102.83 82.7106C105.136 83.6658 107.107 85.2834 108.494 87.3587C109.881 89.4341 110.621 91.874 110.621 94.37C110.618 97.7162 109.288 100.925 106.922 103.291C104.555 105.657 101.347 106.987 98.0009 106.99V106.99ZM98.0009 82.99C95.7501 82.99 93.5499 83.6574 91.6785 84.9079C89.807 86.1583 88.3484 87.9356 87.4871 90.0151C86.6258 92.0945 86.4004 94.3826 86.8395 96.5901C87.2786 98.7976 88.3625 100.825 89.954 102.417C91.5455 104.008 93.5732 105.092 95.7807 105.531C97.9882 105.97 100.276 105.745 102.356 104.884C104.435 104.022 106.213 102.564 107.463 100.692C108.713 98.821 109.381 96.6208 109.381 94.37C109.376 91.3535 108.175 88.462 106.042 86.329C103.909 84.196 101.017 82.9953 98.0009 82.99Z" fill="#165DBA"/>
<path d="M95.8391 101.92L88.6891 94.7703C88.631 94.7126 88.5849 94.6441 88.5535 94.5686C88.522 94.4931 88.5059 94.4121 88.5059 94.3303C88.5059 94.2485 88.522 94.1675 88.5535 94.092C88.5849 94.0164 88.631 93.9479 88.6891 93.8903C88.746 93.831 88.8143 93.7838 88.8899 93.7516C88.9655 93.7194 89.0469 93.7028 89.1291 93.7028C89.2112 93.7028 89.2926 93.7194 89.3682 93.7516C89.4438 93.7838 89.5121 93.831 89.5691 93.8903L95.8291 100.15L106.359 89.6403C106.476 89.5236 106.634 89.458 106.799 89.458C106.964 89.458 107.122 89.5236 107.239 89.6403C107.356 89.757 107.421 89.9152 107.421 90.0803C107.421 90.2453 107.356 90.4036 107.239 90.5203L95.8391 101.92Z" fill="#165DBA"/>
</g>
<defs>
<filter id="filter0_d_1524_5900" x="0" y="0" width="160" height="160" filterUnits="userSpaceOnUse" color-interpolation-filters="sRGB">
<feFlood flood-opacity="0" result="BackgroundImageFix"/>
<feColorMatrix in="SourceAlpha" type="matrix" values="0 0 0 0 0 0 0 0 0 0 0 0 0 0 0 0 0 0 127 0" result="hardAlpha"/>
<feOffset/>
<feGaussianBlur stdDeviation="10"/>
<feComposite in2="hardAlpha" operator="out"/>
<feColorMatrix type="matrix" values="0 0 0 0 0 0 0 0 0 0 0 0 0 0 0 0 0 0 0.16 0"/>
<feBlend mode="normal" in2="BackgroundImageFix" result="effect1_dropShadow_1524_5900"/>
<feBlend mode="normal" in="SourceGraphic" in2="effect1_dropShadow_1524_5900" result="shape"/>
</filter>
<clipPath id="clip0_1524_5900">
<rect width="60.63" height="59" fill="white" transform="translate(50 48)"/>
</clipPath>
</defs>
</svg>
