<svg width="160" height="160" viewBox="0 0 160 160" fill="none" xmlns="http://www.w3.org/2000/svg">
<g filter="url(#filter0_d_1524_5901)">
<circle cx="80" cy="80" r="60" fill="white"/>
</g>
<path d="M88.8635 80.3633H58.8635C58.6826 80.3633 58.5092 80.4351 58.3813 80.563C58.2535 80.6908 58.1816 80.8643 58.1816 81.0451C58.1816 81.2259 58.2535 81.3994 58.3813 81.5272C58.5092 81.6551 58.6826 81.7269 58.8635 81.7269H60.9089V102.345C60.9125 104.109 61.6148 105.799 62.862 107.047C64.1092 108.294 65.7997 108.996 67.5635 109H86.1362C86.317 109 86.4904 108.928 86.6183 108.8C86.7462 108.672 86.818 108.499 86.818 108.318C86.818 108.137 86.7462 107.964 86.6183 107.836C86.4904 107.708 86.317 107.636 86.1362 107.636H67.5635C66.1602 107.636 64.8145 107.079 63.8222 106.086C62.83 105.094 62.2725 103.748 62.2725 102.345V81.7269H88.8635C89.0443 81.7269 89.2177 81.6551 89.3456 81.5272C89.4734 81.3994 89.5453 81.2259 89.5453 81.0451C89.5453 80.8643 89.4734 80.6908 89.3456 80.563C89.2177 80.4351 89.0443 80.3633 88.8635 80.3633Z" fill="#165DBA"/>
<path d="M86.1375 91.1094H70.6193C70.4385 91.1094 70.2651 91.1812 70.1372 91.3091C70.0093 91.4369 69.9375 91.6104 69.9375 91.7912C69.941 91.9709 70.0139 92.1423 70.1411 92.2694C70.2682 92.3966 70.4396 92.4695 70.6193 92.473H86.1375C86.3183 92.473 86.4918 92.4012 86.6196 92.2733C86.7475 92.1454 86.8193 91.972 86.8193 91.7912C86.8193 91.6104 86.7475 91.4369 86.6196 91.3091C86.4918 91.1812 86.3183 91.1094 86.1375 91.1094Z" fill="#165DBA"/>
<path d="M103.345 61.2727H99.0909V54.4545C99.0909 53.0079 98.5162 51.6205 97.4933 50.5976C96.4704 49.5747 95.083 49 93.6364 49H66.3636C64.917 49 63.5296 49.5747 62.5067 50.5976C61.4838 51.6205 60.9091 53.0079 60.9091 54.4545V61.2727H56.6545C54.8908 61.2763 53.2002 61.9786 51.9531 63.2258C50.7059 64.473 50.0036 66.1635 50 67.9273V87.3455C50.0036 89.1092 50.7059 90.7998 51.9531 92.0469C53.2002 93.2941 54.8908 93.9964 56.6545 94H58.8636C59.0445 94 59.2179 93.9282 59.3458 93.8003C59.4736 93.6724 59.5455 93.499 59.5455 93.3182C59.5455 93.1374 59.4736 92.9639 59.3458 92.8361C59.2179 92.7082 59.0445 92.6364 58.8636 92.6364H56.6545C55.2513 92.6364 53.9055 92.0789 52.9133 91.0867C51.9211 90.0945 51.3636 88.7487 51.3636 87.3455V67.9273C51.3636 66.524 51.9211 65.1783 52.9133 64.186C53.9055 63.1938 55.2513 62.6364 56.6545 62.6364H103.345C104.749 62.6364 106.094 63.1938 107.087 64.186C108.079 65.1783 108.636 66.524 108.636 67.9273V89.2273C108.636 89.4081 108.708 89.5815 108.836 89.7094C108.964 89.8373 109.137 89.9091 109.318 89.9091C109.499 89.9091 109.672 89.8373 109.8 89.7094C109.928 89.5815 110 89.4081 110 89.2273V67.9273C109.996 66.1635 109.294 64.473 108.047 63.2258C106.8 61.9786 105.109 61.2763 103.345 61.2727V61.2727ZM97.7273 61.2727H62.2727V54.4545C62.2727 53.3696 62.7037 52.329 63.4709 51.5618C64.2381 50.7946 65.2787 50.3636 66.3636 50.3636H93.6364C94.7213 50.3636 95.7619 50.7946 96.5291 51.5618C97.2963 52.329 97.7273 53.3696 97.7273 54.4545V61.2727Z" fill="#165DBA"/>
<path d="M60.9093 67.4094C60.9093 67.2285 60.8374 67.0551 60.7096 66.9272C60.5817 66.7994 60.4083 66.7275 60.2275 66.7275H57.5002C57.3193 66.7275 57.1459 66.7994 57.0181 66.9272C56.8902 67.0551 56.8184 67.2285 56.8184 67.4094C56.8184 67.5902 56.8902 67.7636 57.0181 67.8915C57.1459 68.0193 57.3193 68.0912 57.5002 68.0912H60.2275C60.4083 68.0912 60.5817 68.0193 60.7096 67.8915C60.8374 67.7636 60.9093 67.5902 60.9093 67.4094Z" fill="#165DBA"/>
<path d="M86.1369 98.0908H71.1369C70.9561 98.0908 70.7826 98.1627 70.6548 98.2905C70.5269 98.4184 70.4551 98.5918 70.4551 98.7726C70.4551 98.9535 70.5269 99.1269 70.6548 99.2548C70.7826 99.3826 70.9561 99.4545 71.1369 99.4545H86.1369C86.3177 99.4545 86.4911 99.3826 86.619 99.2548C86.7469 99.1269 86.8187 98.9535 86.8187 98.7726C86.8187 98.5918 86.7469 98.4184 86.619 98.2905C86.4911 98.1627 86.3177 98.0908 86.1369 98.0908Z" fill="#165DBA"/>
<path d="M105.391 90.4412V84.9867H106.427C106.607 84.9832 106.778 84.9102 106.905 84.7831C107.032 84.656 107.105 84.4846 107.109 84.3049C107.109 84.124 107.037 83.9506 106.909 83.8227C106.781 83.6949 106.608 83.623 106.427 83.623H91.0724C90.8916 83.623 90.7182 83.6949 90.5903 83.8227C90.4625 83.9506 90.3906 84.124 90.3906 84.3049C90.3941 84.4846 90.4671 84.656 90.5942 84.7831C90.7213 84.9102 90.8927 84.9832 91.0724 84.9867H92.1088V90.4412C92.11 91.6359 92.4552 92.8049 93.1033 93.8085C93.7515 94.8121 94.6749 95.6078 95.7634 96.1003C94.676 96.5942 93.7534 97.3902 93.1055 98.3935C92.4576 99.3968 92.1117 100.565 92.1088 101.759V107.473H91.0724C90.8916 107.473 90.7182 107.545 90.5903 107.673C90.4625 107.801 90.3906 107.974 90.3906 108.155C90.3941 108.335 90.4671 108.506 90.5942 108.633C90.7213 108.76 90.8927 108.833 91.0724 108.837H106.427C106.607 108.833 106.778 108.76 106.905 108.633C107.032 108.506 107.105 108.335 107.109 108.155C107.109 107.974 107.037 107.801 106.909 107.673C106.781 107.545 106.608 107.473 106.427 107.473H105.391V101.759C105.388 100.565 105.042 99.3968 104.394 98.3935C103.746 97.3902 102.823 96.5942 101.736 96.1003C102.824 95.6078 103.748 94.8121 104.396 93.8085C105.044 92.8049 105.389 91.6359 105.391 90.4412V90.4412ZM104.027 101.759V107.473H93.4724V101.759C93.4707 101.121 93.5949 100.488 93.8381 99.8975C94.0812 99.3069 94.4385 98.7701 94.8895 98.3179C95.3404 97.8657 95.8762 97.5069 96.4661 97.2621C97.056 97.0172 97.6883 96.8912 98.327 96.8912H99.1724C99.8111 96.8912 100.443 97.0172 101.033 97.2621C101.623 97.5069 102.159 97.8657 102.61 98.3179C103.061 98.7701 103.418 99.3069 103.661 99.8975C103.905 100.488 104.029 101.121 104.027 101.759V101.759ZM99.1724 95.364H98.327C97.6883 95.364 97.056 95.2379 96.4661 94.9931C95.8762 94.7483 95.3404 94.3895 94.8895 93.9373C94.4385 93.485 94.0812 92.9483 93.8381 92.3577C93.5949 91.7672 93.4707 91.1344 93.4724 90.4958V85.0412H104.027V90.4958C104.029 91.1344 103.905 91.7672 103.661 92.3577C103.418 92.9483 103.061 93.485 102.61 93.9373C102.159 94.3895 101.623 94.7483 101.033 94.9931C100.443 95.2379 99.8111 95.364 99.1724 95.364Z" fill="#165DBA"/>
<defs>
<filter id="filter0_d_1524_5901" x="0" y="0" width="160" height="160" filterUnits="userSpaceOnUse" color-interpolation-filters="sRGB">
<feFlood flood-opacity="0" result="BackgroundImageFix"/>
<feColorMatrix in="SourceAlpha" type="matrix" values="0 0 0 0 0 0 0 0 0 0 0 0 0 0 0 0 0 0 127 0" result="hardAlpha"/>
<feOffset/>
<feGaussianBlur stdDeviation="10"/>
<feComposite in2="hardAlpha" operator="out"/>
<feColorMatrix type="matrix" values="0 0 0 0 0 0 0 0 0 0 0 0 0 0 0 0 0 0 0.16 0"/>
<feBlend mode="normal" in2="BackgroundImageFix" result="effect1_dropShadow_1524_5901"/>
<feBlend mode="normal" in="SourceGraphic" in2="effect1_dropShadow_1524_5901" result="shape"/>
</filter>
</defs>
</svg>
