<svg width="160" height="160" viewBox="0 0 160 160" fill="none" xmlns="http://www.w3.org/2000/svg">
<g filter="url(#filter0_d_1188_8198)">
<circle cx="80" cy="80" r="60" fill="white"/>
</g>
<path d="M100.8 82.8004C94.1 82.8004 88.6 88.3004 88.6 95.0004C88.6 101.7 94.1 107.2 100.8 107.2C107.5 107.2 113 101.7 113 95.0004C113 88.3004 107.5 82.8004 100.8 82.8004ZM89.9 95.0004C89.9 92.4004 90.8 89.9004 92.6 87.9004L107.9 103.2C103.4 107.1 96.5 106.6 92.6 102.1C90.9 100.1 89.9 97.6004 89.9 95.0004ZM108.8 102.3L93.5 86.9004C98 82.9004 104.8 83.3004 108.9 87.7004C112.6 91.9004 112.6 98.2004 108.8 102.3ZM86.2 94.3004H83.5V55.0004H93.6V64.9004C93.6 66.6004 95 68.0004 96.7 68.0004H106.6V81.8004C106.6 82.2004 106.9 82.4004 107.3 82.4004C107.7 82.4004 107.9 82.1004 107.9 81.8004V67.8004C107.9 67.7004 107.9 67.6004 107.9 67.5004V67.4004C107.9 67.3004 107.9 67.2004 107.8 67.1004C107.7 66.3004 107.3 65.6004 106.7 65.1004L96.5 54.8004C96 54.3004 95.3 53.9004 94.6 53.8004C94.5 53.8004 94.4 53.7004 94.3 53.7004H94.2C94.1 53.7004 94 53.7004 93.9 53.7004H83.6V49.5004C83.6 49.1004 83.3 48.9004 82.9 48.9004C82.5 48.9004 82.3 49.2004 82.3 49.5004V99.9004C82.3 100.3 82.6 100.5 83 100.5C83.4 100.5 83.6 100.2 83.6 99.9004V95.7004H86.3C86.7 95.7004 86.9 95.4004 86.9 95.0004C86.9 94.6004 86.6 94.3004 86.2 94.3004ZM105.9 66.0004C106.1 66.2004 106.3 66.5004 106.4 66.7004H96.7C95.7 66.7004 94.9 65.9004 95 64.9004V55.3004C95.2 55.4004 95.4 55.5004 95.6 55.7004L105.9 66.0004ZM53 77.1004V74.5004C53 74.1004 53.3 73.9004 53.6 73.9004C53.9 73.9004 54.2 74.2004 54.2 74.5004V77.1004C54.2 77.5004 53.9 77.7004 53.6 77.7004C53.3 77.8004 53 77.5004 53 77.1004ZM53 71.9004V69.3004C53 68.9004 53.3 68.7004 53.6 68.7004C53.9 68.7004 54.2 69.0004 54.2 69.3004V71.9004C54.2 72.3004 53.9 72.5004 53.6 72.5004C53.3 72.5004 53 72.3004 53 71.9004ZM53 66.7004V64.1004C53 63.7004 53.3 63.5004 53.6 63.5004C53.9 63.5004 54.2 63.8004 54.2 64.1004V66.7004C54.2 67.1004 53.9 67.3004 53.6 67.3004C53.3 67.3004 53 67.1004 53 66.7004ZM53 82.3004V79.7004C53 79.3004 53.3 79.1004 53.6 79.1004C53.9 79.1004 54.2 79.4004 54.2 79.7004V82.3004C54.3 82.7004 54 83.0004 53.7 83.0004C53.4 83.0004 53 82.7004 53 82.3004ZM53 61.5004V59.3004C53 59.1004 53 59.0004 53 58.8004C53 58.4004 53.4 58.2004 53.7 58.2004C54.1 58.2004 54.3 58.6004 54.3 58.9004C54.3 59.0004 54.3 59.1004 54.3 59.2004V61.4004C54.3 61.8004 54 62.0004 53.7 62.0004C53.3 62.2004 53 61.9004 53 61.5004ZM53 87.5004V84.9004C53 84.5004 53.3 84.3004 53.6 84.3004C53.9 84.3004 54.2 84.6004 54.2 84.9004V87.5004C54.2 87.9004 53.9 88.1004 53.6 88.1004C53.3 88.1004 53 87.9004 53 87.5004ZM74.2 54.3004C74.2 53.9004 74.5 53.7004 74.8 53.7004H77.4C77.8 53.7004 78 54.0004 78 54.4004C78 54.8004 77.7 55.0004 77.4 55.0004H74.8C74.5 55.0004 74.2 54.7004 74.2 54.3004ZM63.8 54.3004C63.8 53.9004 64.1 53.7004 64.4 53.7004H67C67.4 53.7004 67.7 54.0004 67.7 54.4004C67.7 54.7004 67.4 55.0004 67 55.0004H64.4C64 55.0004 63.8 54.7004 63.8 54.3004ZM69 54.3004C69 53.9004 69.3 53.7004 69.6 53.7004H72.2C72.6 53.7004 72.9 54.0004 72.9 54.3004C72.9 54.7004 72.6 55.0004 72.3 55.0004H69.7C69.3 55.0004 69 54.7004 69 54.3004ZM75.2 95.0004C75.2 95.4004 74.9 95.6004 74.6 95.6004H72C71.6 95.6004 71.3 95.3004 71.3 95.0004C71.3 94.7004 71.6 94.3004 71.9 94.3004H74.5C74.9 94.4004 75.2 94.7004 75.2 95.0004ZM70 95.0004C70 95.4004 69.7 95.6004 69.4 95.6004H66.8C66.4 95.6004 66.1 95.3004 66.1 95.0004C66.1 94.7004 66.4 94.3004 66.7 94.3004H69.3C69.7 94.3004 70 94.6004 70 95.0004ZM80.4 95.0004C80.4 95.4004 80.1 95.6004 79.8 95.6004H77.2C76.8 95.6004 76.6 95.3004 76.6 94.9004C76.6 94.5004 76.9 94.3004 77.2 94.3004H79.8C80.1 94.3004 80.4 94.6004 80.4 95.0004ZM55 92.2004C55.2 92.5004 55.1 92.9004 54.9 93.1004C54.8 93.2004 54.7 93.2004 54.5 93.2004C54.3 93.2004 54.1 93.1004 54 92.9004C53.4 92.1004 53.1 91.1004 53 90.1004C53 89.7004 53.3 89.4004 53.6 89.4004C54 89.4004 54.3 89.7004 54.3 90.0004C54.3 90.9004 54.6 91.6004 55 92.2004ZM64.8 95.0004C64.8 95.4004 64.5 95.6004 64.2 95.6004H61.5C61.1 95.6004 60.9 95.3004 60.9 94.9004C60.9 94.5004 61.2 94.3004 61.5 94.3004H64.1C64.5 94.3004 64.8 94.6004 64.8 95.0004ZM57 55.6004C56.3 55.9004 55.7 56.4004 55.2 57.0004C55 57.2004 54.9 57.2004 54.7 57.2004C54.6 57.2004 54.4 57.1004 54.3 57.1004C54 56.9004 53.9 56.5004 54.2 56.2004C54.8 55.4004 55.6 54.8004 56.5 54.4004C56.8 54.2004 57.2 54.4004 57.4 54.7004C57.5 55.0004 57.3 55.4004 57 55.6004ZM59.6 95.0004C59.6 95.3004 59.3 95.6004 59 95.6004H58.9C57.9 95.5004 57 95.2004 56.2 94.8004C55.9 94.7004 55.7 94.3004 55.9 93.9004C56 93.6004 56.4 93.4004 56.8 93.6004H56.9C57.5 94.0004 58.2 94.2004 59 94.3004C59.3 94.3004 59.6 94.6004 59.6 95.0004ZM61.8 55.0004H59.2C58.9 55.0004 58.6 54.7004 58.6 54.4004C58.6 54.0004 58.8 53.7004 59.2 53.7004H61.8C62.2 53.7004 62.4 54.0004 62.4 54.3004C62.4 54.6004 62.2 55.0004 61.8 55.0004Z" fill="#165DBA"/>
<defs>
<filter id="filter0_d_1188_8198" x="0" y="0" width="160" height="160" filterUnits="userSpaceOnUse" color-interpolation-filters="sRGB">
<feFlood flood-opacity="0" result="BackgroundImageFix"/>
<feColorMatrix in="SourceAlpha" type="matrix" values="0 0 0 0 0 0 0 0 0 0 0 0 0 0 0 0 0 0 127 0" result="hardAlpha"/>
<feOffset/>
<feGaussianBlur stdDeviation="10"/>
<feComposite in2="hardAlpha" operator="out"/>
<feColorMatrix type="matrix" values="0 0 0 0 0 0 0 0 0 0 0 0 0 0 0 0 0 0 0.16 0"/>
<feBlend mode="normal" in2="BackgroundImageFix" result="effect1_dropShadow_1188_8198"/>
<feBlend mode="normal" in="SourceGraphic" in2="effect1_dropShadow_1188_8198" result="shape"/>
</filter>
</defs>
</svg>
